<?xml version="1.0" encoding="utf-8"?>
<!-- Generator: Adobe Illustrator 17.1.0, SVG Export Plug-In . SVG Version: 6.00 Build 0)  -->
<!DOCTYPE svg PUBLIC "-//W3C//DTD SVG 1.1//EN" "http://www.w3.org/Graphics/SVG/1.1/DTD/svg11.dtd">
<svg version="1.1" id="Layer_1" xmlns="http://www.w3.org/2000/svg" xmlns:xlink="http://www.w3.org/1999/xlink" x="0px" y="0px"
	 viewBox="0 0 260 260" enable-background="new 0 0 260 260" xml:space="preserve">
<g id="Layer_1_1_">
	<circle fill="#D1E7C1" cx="127.9" cy="131.1" r="124.3"/>
	<path fill="#7897A2" d="M9.7,131C9.7,65.7,62.6,12.6,127.9,12.6c65.4-0.1,118.4,52.8,118.5,118.2"/>
	<path fill="none" d="M34.7,135.1C34.7,82,76.4,39,128,38.9c51.6-0.1,93.4,42.9,93.5,95.9"/>
	
		<text transform="matrix(0.2261 -0.9452 0.9726 0.2326 36.1895 117.0493)" fill="#F7C9A4" font-family="'AdelleBasic-Bold'" font-size="18.2296">S</text>
	
		<text transform="matrix(0.3258 -0.9156 0.9421 0.3352 38.8145 106.3253)" fill="#F7C9A4" font-family="'AdelleBasic-Bold'" font-size="18.2283">e</text>
	
		<text transform="matrix(0.4197 -0.8766 0.902 0.4318 42.1387 97.0266)" fill="#F7C9A4" font-family="'AdelleBasic-Bold'" font-size="18.2296">a</text>
	
		<text transform="matrix(0.5025 -0.8319 0.8559 0.5171 46.7206 87.6375)" fill="#F7C9A4" font-family="'AdelleBasic-Bold'" font-size="18.2287">t</text>
	
		<text transform="matrix(0.5723 -0.7856 0.8083 0.5888 51.0405 80.5354)" fill="#F7C9A4" font-family="'AdelleBasic-Bold'" font-size="18.2294">t</text>
	
		<text transform="matrix(0.6303 -0.7398 0.7612 0.6485 56.0232 73.8086)" fill="#F7C9A4" font-family="'AdelleBasic-Bold'" font-size="18.2289">l</text>
	
		<text transform="matrix(0.6905 -0.684 0.7038 0.7104 60.0179 69.0396)" fill="#F7C9A4" font-family="'AdelleBasic-Bold'" font-size="18.2291">e</text>
	
		<text transform="matrix(0.7396 -0.6305 0.6487 0.761 67.1821 62.1267)" fill="#F7C9A4" font-family="'AdelleBasic-Bold'" font-size="18.2285"> </text>
	
		<text transform="matrix(0.7912 -0.5644 0.5807 0.8141 70.2794 59.2987)" fill="#F7C9A4" font-family="'AdelleBasic-Bold'" font-size="18.2288">P</text>
	
		<text transform="matrix(0.8531 -0.4657 0.4792 0.8777 80.0405 52.4272)" fill="#F7C9A4" font-family="'AdelleBasic-Bold'" font-size="18.229">a</text>
	
		<text transform="matrix(0.8973 -0.3735 0.3843 0.9232 89.2021 47.5017)" fill="#F7C9A4" font-family="'AdelleBasic-Bold'" font-size="18.2289">r</text>
	
		<text transform="matrix(0.9335 -0.2703 0.2782 0.9605 97.438 44.0276)" fill="#F7C9A4" font-family="'AdelleBasic-Bold'" font-size="18.2287">k</text>
	
		<text transform="matrix(0.9582 -0.1625 0.1672 0.9859 108.5089 40.9203)" fill="#F7C9A4" font-family="'AdelleBasic-Bold'" font-size="18.2287">s</text>
	
		<text transform="matrix(0.9676 -9.119918e-02 9.379917e-02 0.9956 117.6584 39.4896)" fill="#F7C9A4" font-family="'AdelleBasic-Bold'" font-size="18.2292"> </text>
	
		<text transform="matrix(0.9717 -1.730072e-02 1.780074e-02 0.9998 121.891 39.0132)" fill="#F7C9A4" font-family="'AdelleBasic-Bold'" font-size="18.2283">a</text>
	
		<text transform="matrix(0.9665 0.1022 -0.1052 0.9945 132.2251 38.8451)" fill="#F7C9A4" font-family="'AdelleBasic-Bold'" font-size="18.23">n</text>
	
		<text transform="matrix(0.946 0.2227 -0.2292 0.9734 143.7026 40.0961)" fill="#F7C9A4" font-family="'AdelleBasic-Bold'" font-size="18.2294">d</text>
	
		<text transform="matrix(0.9233 0.3036 -0.3124 0.95 154.8069 42.898)" fill="#F7C9A4" font-family="'AdelleBasic-Bold'" font-size="18.2299"> </text>
	
		<text transform="matrix(0.8912 0.3878 -0.3991 0.9169 158.8214 44.0387)" fill="#F7C9A4" font-family="'AdelleBasic-Bold'" font-size="18.229">R</text>
	
		<text transform="matrix(0.8374 0.4933 -0.5076 0.8616 170.369 49.1928)" fill="#F7C9A4" font-family="'AdelleBasic-Bold'" font-size="18.2292">e</text>
	
		<text transform="matrix(0.7813 0.578 -0.5948 0.8039 178.8712 54.2464)" fill="#F7C9A4" font-family="'AdelleBasic-Bold'" font-size="18.2295">c</text>
	
		<text transform="matrix(0.7209 0.6518 -0.6706 0.7418 186.5493 59.9802)" fill="#F7C9A4" font-family="'AdelleBasic-Bold'" font-size="18.2288">r</text>
	
		<text transform="matrix(0.6531 0.7197 -0.7405 0.672 193.1857 65.9902)" fill="#F7C9A4" font-family="'AdelleBasic-Bold'" font-size="18.2284">e</text>
	
		<text transform="matrix(0.5735 0.7847 -0.8073 0.5901 199.8133 73.319)" fill="#F7C9A4" font-family="'AdelleBasic-Bold'" font-size="18.2286">a</text>
	
		<text transform="matrix(0.4948 0.8365 -0.8607 0.5092 205.8982 81.7762)" fill="#F7C9A4" font-family="'AdelleBasic-Bold'" font-size="18.2299">t</text>
	
		<text transform="matrix(0.4302 0.8715 -0.8967 0.4427 210.1093 89.0255)" fill="#F7C9A4" font-family="'AdelleBasic-Bold'" font-size="18.2296">i</text>
	
		<text transform="matrix(0.3519 0.9059 -0.9321 0.3621 212.9211 94.5449)" fill="#F7C9A4" font-family="'AdelleBasic-Bold'" font-size="18.2284">o</text>
	
		<text transform="matrix(0.2454 0.9404 -0.9676 0.2525 216.8366 104.6507)" fill="#F7C9A4" font-family="'AdelleBasic-Bold'" font-size="18.2291">n</text>
	<path fill="#E5F4F3" d="M34.7,132.6c32.8-9.5,48.7-19.5,63.9-55.8c6.7-16.1,22.6-19.9,37.9-12.8c22.6,10.6,89.2,44.5,74.7,68.4"/>
	<path opacity="0.24" fill="#6F8D9B" enable-background="new    " d="M43.8,131.2c12.5-4.8,41.3-13.9,51.6-34.1
		c21.1,9.3,66.2,1,74.1-8.3c0,0,51.5,21.7,41,42.2"/>
	
		<line fill="none" stroke="#364F59" stroke-width="1.6005" stroke-linecap="round" stroke-miterlimit="10" x1="124" y1="99" x2="180.7" y2="132.4"/>
	<path fill="#364F59" d="M241.1,132.3c0-0.7-0.6-1.3-1.3-1.3l-71.2,0.1l-63.9-37.6c-0.9-0.4-1.4,0.9-0.5,1.3l61.7,36.3l-8.6,0
		l-54.8-32.2c-0.9-0.5-1.5,0.8-0.6,1.2l52.8,31l-8.6,0l-46.2-27.2c-0.9-0.6-1.6,0.6-0.7,1.1l44.3,26l-8.6,0l-38.1-22.4
		c-0.9-0.5-1.7,0.6-0.8,1.1l36.3,21.3l-8.6,0l-30.4-17.9c-1-0.6-1.9,0.4-0.9,1l28.7,16.9l-8.6,0l-23.2-13.7c-1-0.7-2.1,0.2-1,1
		l21.6,12.7l-8.6,0l-16.6-9.8c-0.9-0.7-2.1,0.2-1.2,0.9l15.1,8.9l-8.6,0L79,125c-0.9-0.7-2.2,0.2-1.3,0.8l9.2,5.4l-8.6,0l-5.1-3
		c-1-0.6-2.5,0-1.5,0.7l3.9,2.3l-8.6,0l-0.5-0.3c-0.7-0.5-2.2-0.2-2,0.3l-51.5,1C12.8,133.1,241.1,133.1,241.1,132.3L241.1,132.3z"
		/>
	<path opacity="0.56" enable-background="new    " d="M44.1,131c0,0,9.8-3.3,13.1-4.9c6,3.6,147.5,8.4,154.5-3.3c0,0,1.1,4.1-1,8.1
		L44.1,131z"/>
	<path fill="#55737F" d="M246.4,130.8c0.1,65.4-52.8,118.4-118.2,118.5C62.9,249.3,9.8,196.4,9.7,131"/>
	<path fill="#48616C" d="M51.5,131l158.9-0.1c0.7,0-17.8,6.9-42.9,7.9c-25,1-123-6.3-123.3-7.7C44.3,131,50.8,131,51.5,131z"/>
	<g display="none">
		<path display="inline" fill="#E5F4F3" d="M44.2,189.6l2.3,0L61.7,152l-3.3,0c-2.2,0-4-1.8-4-4v-0.1c0-2.2,1.8-4,4-4l18,0L95,189.6
			l2.4,0c2.2,0,4,1.8,4,4v0.1c0,2.2-1.8,4-4,4l-16.1,0c-2.2,0-4-1.8-4-4v-0.1c0-2.2,1.8-4,4-4l3.1,0l-2.8-7.3l-22.1,0l-2.8,7.4
			l3.1,0c2.2,0,4,1.8,4,4v0.1c0,2.2-1.8,4-4,4l-15.4,0c-2.2,0-4-1.8-4-4v-0.1C40.2,191.4,42,189.6,44.2,189.6z M78.4,174.1l-8-20.4
			l-7.9,20.4L78.4,174.1z"/>
		<path display="inline" fill="#E5F4F3" d="M108.8,171.1c0-17.9,11.9-28.4,28.7-28.4c8.7,0,16.7,2.7,20.1,4.3l0,10.6
			c0,2.7-2.2,4.9-4.9,4.9h-0.1c-2.7,0-4.9-2.2-4.9-4.9l0-5.1c-2.6-0.7-6.4-1.3-9.7-1.3c-11.1,0-18.7,6.8-18.7,19.2
			c0,12.8,8.2,19.4,19.3,19.4c3.7,0,7.3-0.7,10.5-1.8c4.1-1.4,8.3,1.6,8.3,5.9v0.1c-3.7,2-10.7,4.7-19.7,4.7
			C120.2,198.8,108.8,188.4,108.8,171.1z"/>
		<path display="inline" fill="#E5F4F3" d="M175.2,189.5l3.2,0l0-37.6l-3.2,0c-2.2,0-4-1.8-4-4v-0.1c0-2.2,1.8-4,4-4l36.4,0
			c2.2,0,4,1.8,4,4l0,7.8c0,2.2-1.8,4-4,4l-1.4,0c-2.2,0-4-1.8-4-4l0-3.7l-17.4,0l0,14.6l16.2,0c2.2,0,4,1.8,4,4v0.1
			c0,2.2-1.8,4-4,4l-16.2,0l0,14.9l17.7,0l0-4c0-2.2,1.8-4,4-4l1.5,0c2.2,0,4,1.8,4,4l0,8.2c0,2.2-1.8,4-4,4l-36.8,0
			c-2.2,0-4-1.8-4-4v-0.1C171.2,191.3,173,189.5,175.2,189.5z"/>
	</g>
	<circle fill="#D1E7C1" cx="163.9" cy="175.8" r="2.9"/>
	<circle fill="#D1E7C1" cx="100.1" cy="175.8" r="2.9"/>
	<g>
		<path fill="#E5F4F3" d="M79,197.4L79,197.4c0-1.5,1.1-2.8,2.6-2.9l3.3-0.4l-2.6-7.4H64.6l-2.5,7.4l3.1,0.3
			c1.5,0.2,2.6,1.4,2.6,2.9v0.1c0,1.6-1.3,2.9-2.9,2.9H50.9c-1.7,0-3.1-1.4-3.1-3.1v-0.1c0-1.4,1-2.7,2.3-3l0.8-0.2
			c0.9-0.2,1.5-0.5,1.8-1.4l15.6-44H81l15.6,44.1c0.3,0.9,0.9,1,1.7,1.2l0.9,0.2c1.4,0.3,2.4,1.6,2.4,3v0.1c0,1.7-1.4,3.1-3.1,3.1
			H81.9C80.3,200.4,79,199.1,79,197.4z M73.8,159.6h-0.4L66.8,179h13.3L73.8,159.6z"/>
		<path fill="#E5F4F3" d="M154.2,197.3c-4.2,2.6-11.3,3.9-17.8,3.9c-17.8,0-25.1-10.4-25.1-26.9c0-15.2,8.8-26.5,26.5-26.5
			c5.9,0,12.3,1.5,16.2,4.1v9.5c0,2.4-2.1,4.4-4.5,4.2l-0.1,0c-1.9-0.2-3.5-1.6-3.8-3.5l-0.6-3.8c-0.1-0.7-0.4-1.1-1.1-1.3
			c-1.6-0.5-4-0.9-6.4-0.9c-9.1,0-14.8,6.1-14.8,18.3c0,12.6,5.5,18.8,14.3,18.8c2.4,0,5.3-0.4,7.1-0.9
			C152.7,189.2,154.2,197.3,154.2,197.3z"/>
		<path fill="#E5F4F3" d="M169.5,197.4L169.5,197.4c0-1.5,1.1-2.8,2.6-2.9l1.9-0.2c1-0.1,1.1-0.4,1.1-1.4v-36.6
			c0-1.1-0.1-1.4-1.1-1.4l-1.9-0.2c-1.5-0.2-2.6-1.4-2.6-2.9v-0.1c0-1.6,1.3-2.9,2.9-2.9h35v10c0,2.4-2,4.3-4.4,4.2l-0.1,0
			c-2-0.1-3.6-1.5-4-3.5l-0.4-2.1c-0.1-0.7-0.4-0.9-1.2-0.9h-11.2v14.1h12.8c2.2,0,3.9,1.8,3.9,3.9v0.1c0,2.2-1.8,3.9-3.9,3.9h-12.8
			v14.3h12.8c0.8,0,1-0.1,1.1-0.8l0.5-2.8c0.4-2,2.1-3.4,4.1-3.4h0.1c2.3,0,4.2,1.9,4.2,4.2v10.5h-36.6
			C170.8,200.4,169.5,199.1,169.5,197.4z"/>
	</g>
</g>
<g id="Layer_2" display="none">
	<g display="inline">
		<path fill="#A5D7B9" stroke="#E5F4F3" stroke-miterlimit="10" d="M130.6,104.6c1.8-0.9,3-2.5,3.4-4.4c-1.7-0.7-3.7-0.7-5.5,0.2
			c-1.8,0.9-3,2.5-3.4,4.4C126.8,105.5,128.8,105.5,130.6,104.6z"/>
	</g>
	
		<line display="inline" fill="none" stroke="#E5F4F3" stroke-width="0.7" stroke-linecap="round" stroke-miterlimit="10" x1="130.6" y1="102" x2="131.7" y2="102.4"/>
	
		<line display="inline" fill="none" stroke="#E5F4F3" stroke-width="0.7" stroke-linecap="round" stroke-miterlimit="10" x1="127.4" y1="103.7" x2="128.4" y2="104.1"/>
	
		<line display="inline" fill="none" stroke="#E5F4F3" stroke-width="0.7" stroke-linecap="round" stroke-miterlimit="10" x1="125.1" y1="104.7" x2="132.3" y2="101.1"/>
	<g display="inline">
		<path fill="#A5D7B9" stroke="#E5F4F3" stroke-miterlimit="10" d="M121.1,101c-0.7-1.9-0.5-3.9,0.4-5.5c1.8,0.6,3.3,1.9,4,3.8
			c0.7,1.9,0.5,3.9-0.4,5.5C123.4,104.2,121.9,102.8,121.1,101z"/>
	</g>
	
		<line display="inline" fill="none" stroke="#E5F4F3" stroke-width="0.7" stroke-linecap="round" stroke-miterlimit="10" x1="122.9" y1="99.1" x2="121.8" y2="98.6"/>
	
		<line display="inline" fill="none" stroke="#E5F4F3" stroke-width="0.7" stroke-linecap="round" stroke-miterlimit="10" x1="124.2" y1="102.5" x2="123.1" y2="102"/>
	
		<line display="inline" fill="none" stroke="#E5F4F3" stroke-width="0.7" stroke-linecap="round" stroke-miterlimit="10" x1="125.2" y1="104.8" x2="122.2" y2="97.3"/>
	<g display="inline">
		<path fill="#A5D7B9" stroke="#E5F4F3" stroke-width="0.7" stroke-miterlimit="10" d="M130.6,99.4c1-2.6,0.7-5.4-0.6-7.6
			c-2.5,0.8-4.5,2.7-5.5,5.3c-1,2.6-0.7,5.4,0.6,7.6C127.6,103.8,129.6,102,130.6,99.4z"/>
	</g>
	
		<line display="inline" fill="none" stroke="#E5F4F3" stroke-width="0.7" stroke-linecap="round" stroke-miterlimit="10" x1="125.1" y1="104.7" x2="128.9" y2="94.8"/>
	
		<line display="inline" fill="none" stroke="#E5F4F3" stroke-width="0.7" stroke-linecap="round" stroke-miterlimit="10" x1="128.1" y1="96.7" x2="127.5" y2="95.5"/>
	
		<line display="inline" fill="none" stroke="#E5F4F3" stroke-width="0.7" stroke-linecap="round" stroke-miterlimit="10" x1="126.6" y1="100.7" x2="126" y2="99.5"/>
	
		<line display="inline" fill="none" stroke="#E5F4F3" stroke-width="0.7" stroke-linecap="round" stroke-miterlimit="10" x1="127.4" y1="98.7" x2="128.7" y2="98.2"/>
</g>
<g id="Layer_3">
	<path fill="#F7C9A4" d="M121.4,90.5c-0.3,0.6-2.5,0-4.8-1.4c-2.3-1.3-3.9-2.9-3.6-3.4c0.3-0.6,2.2,0.9,5,1
		C119.6,89.1,121.8,89.9,121.4,90.5z"/>
	<path fill="#F7C9A4" d="M116.7,86.7l6.6-11.6c0.8-1.4,1.9-2.2,2.4-1.9l0,0c0.6,0.3,0.4,1.7-0.4,3.1l-6.6,11.6
		C118,89.3,115.9,88.1,116.7,86.7z"/>
	<path fill="#FCD5BB" d="M117.3,88.1L117.3,88.1c1.2-0.4,5.1-7.8,5.1-9l0,0c0.6,0.3,0.8,1,0.5,1.5l-4.2,7.2
		C118.5,88.3,117.8,88.4,117.3,88.1z"/>
	<path fill="#A5D7B9" d="M124,83.1L124,83.1c-0.5-0.3-1.1-0.4-1.7-0.4l0,0c-1.2,0.1-2.3-0.5-2.8-1.6l0,0c-0.2-0.5-0.6-1-1.1-1.3l0,0
		c-1-0.6-1.6-1.8-1.3-2.9l0,0c0.1-0.6,0.1-1.2-0.2-1.7l0,0c-0.5-1.1-0.2-2.4,0.7-3.2l0,0c0.4-0.4,0.7-0.9,0.8-1.5l0,0
		c0.2-1.2,1.2-2,2.4-2.2l0,0c0.6-0.1,1.1-0.3,1.6-0.7l0,0c0.9-0.8,2.2-0.9,3.2-0.4l0,0c0.5,0.3,1.1,0.4,1.7,0.3l0,0
		c1.2-0.1,2.3,0.5,2.8,1.6l0,0c0.2,0.5,0.6,1,1.1,1.3l0,0c1,0.6,1.6,1.8,1.3,2.9l0,0c-0.1,0.6-0.1,1.2,0.2,1.7l0,0
		c0.5,1.1,0.2,2.4-0.7,3.2l0,0c-0.4,0.4-0.7,0.9-0.8,1.5l0,0c-0.2,1.2-1.2,2-2.4,2.2l0,0c-0.6,0.1-1.1,0.3-1.6,0.7l0,0
		C126.3,83.5,125,83.7,124,83.1z"/>
	<g>
		<path fill="#B3DDC5" d="M132.7,75.1L132.7,75.1c-0.3-0.6-0.3-1.1-0.2-1.7l0,0c0.2-1.2-0.3-2.4-1.3-2.9l0,0
			c-0.5-0.3-0.9-0.7-1.1-1.3l0,0c-0.5-1.1-1.6-1.7-2.8-1.6l0,0c-0.6,0.1-1.2-0.1-1.7-0.3l0,0c-0.5-0.3-1.1-0.4-1.6-0.3
			c0,0,3.3,2.6,3.9,8c0.6,5.4-2.1,8.6-2.1,8.6c0.6-0.1,1.1-0.3,1.6-0.7l0,0c0.4-0.4,1-0.6,1.6-0.7l0,0c1.2-0.1,2.1-1,2.4-2.2l0,0
			c0.1-0.6,0.4-1.1,0.8-1.5l0,0C132.9,77.5,133.2,76.2,132.7,75.1z"/>
	</g>
</g>
</svg>
